<svg width="16" height="16" viewBox="0 0 16 16" fill="none" xmlns="http://www.w3.org/2000/svg">
<path d="M13 6C12.4696 6 11.9609 6.21071 11.5858 6.58579C11.2107 6.96086 11 7.46957 11 8C11 8.53043 11.2107 9.03914 11.5858 9.41421C11.9609 9.78929 12.4696 10 13 10C13.5304 10 14.0391 9.78929 14.4142 9.41421C14.7893 9.03914 15 8.53043 15 8C15 7.46957 14.7893 6.96086 14.4142 6.58579C14.0391 6.21071 13.5304 6 13 6ZM13 9C12.4485 9 12 8.5515 12 8C12 7.4485 12.4485 7 13 7C13.5515 7 14 7.4485 14 8C14 8.5515 13.5515 9 13 9ZM7.5 10L6.793 10.707L8.086 12H3.908C3.80527 11.7083 3.61478 11.4556 3.36267 11.2766C3.11057 11.0975 2.80922 11.0009 2.5 11C1.673 11 1 11.673 1 12.5C1 13.327 1.673 14 2.5 14C2.80922 13.9991 3.11057 13.9025 3.36267 13.7234C3.61478 13.5444 3.80527 13.2917 3.908 13H8.086L6.793 14.293L7.5 15L10 12.5L7.5 10ZM2.5 13C2.37126 12.9942 2.2497 12.939 2.16064 12.8459C2.07157 12.7528 2.02187 12.6289 2.02187 12.5C2.02187 12.3711 2.07157 12.2472 2.16064 12.1541C2.2497 12.061 2.37126 12.0058 2.5 12C2.62874 12.0058 2.7503 12.061 2.83936 12.1541C2.92843 12.2472 2.97813 12.3711 2.97813 12.5C2.97813 12.6289 2.92843 12.7528 2.83936 12.8459C2.7503 12.939 2.62874 12.9942 2.5 13ZM7.5 2L6.793 2.707L8.086 4H3.908C3.80527 3.70834 3.61478 3.45564 3.36267 3.27659C3.11057 3.09754 2.80922 3.00092 2.5 3C1.673 3 1 3.673 1 4.5C1 5.327 1.673 6 2.5 6C2.80922 5.99908 3.11057 5.90246 3.36267 5.72341C3.61478 5.54436 3.80527 5.29166 3.908 5H8.086L6.793 6.293L7.5 7L10 4.5L7.5 2ZM2.5 5C2.37126 4.99424 2.2497 4.93905 2.16064 4.84591C2.07157 4.75277 2.02187 4.62887 2.02187 4.5C2.02187 4.37113 2.07157 4.24723 2.16064 4.15409C2.2497 4.06095 2.37126 4.00576 2.5 4C2.62874 4.00576 2.7503 4.06095 2.83936 4.15409C2.92843 4.24723 2.97813 4.37113 2.97813 4.5C2.97813 4.62887 2.92843 4.75277 2.83936 4.84591C2.7503 4.93905 2.62874 4.99424 2.5 5Z" fill="#F7303A"/>
</svg>
