<svg width="18" height="18" viewBox="0 0 18 18" fill="none" xmlns="http://www.w3.org/2000/svg">
<path fill-rule="evenodd" clip-rule="evenodd" d="M6.75 9.75H14.25C14.4489 9.75 14.6397 9.82902 14.7803 9.96967C14.921 10.1103 15 10.3011 15 10.5C15 10.6989 14.921 10.8897 14.7803 11.0303C14.6397 11.171 14.4489 11.25 14.25 11.25H6.75C6.55109 11.25 6.36032 11.171 6.21967 11.0303C6.07902 10.8897 6 10.6989 6 10.5C6 10.3011 6.07902 10.1103 6.21967 9.96967C6.36032 9.82902 6.55109 9.75 6.75 9.75ZM6.75 12.75H14.25C14.4489 12.75 14.6397 12.829 14.7803 12.9697C14.921 13.1103 15 13.3011 15 13.5C15 13.6989 14.921 13.8897 14.7803 14.0303C14.6397 14.171 14.4489 14.25 14.25 14.25H6.75C6.55109 14.25 6.36032 14.171 6.21967 14.0303C6.07902 13.8897 6 13.6989 6 13.5C6 13.3011 6.07902 13.1103 6.21967 12.9697C6.36032 12.829 6.55109 12.75 6.75 12.75ZM11.25 6.75H14.25C14.4489 6.75 14.6397 6.82902 14.7803 6.96967C14.921 7.11032 15 7.30109 15 7.5C15 7.69891 14.921 7.88968 14.7803 8.03033C14.6397 8.17098 14.4489 8.25 14.25 8.25H11.25C11.0511 8.25 10.8603 8.17098 10.7197 8.03033C10.579 7.88968 10.5 7.69891 10.5 7.5C10.5 7.30109 10.579 7.11032 10.7197 6.96967C10.8603 6.82902 11.0511 6.75 11.25 6.75ZM5.80725 8.1855L3 5.379L4.0605 4.31775L5.80725 6.0645L9.621 2.25L10.6822 3.3105L5.80725 8.1855Z" fill="white"/>
</svg>
