<svg width="16" height="16" viewBox="0 0 16 16" fill="none" xmlns="http://www.w3.org/2000/svg">
<path d="M4.00003 1L1.50003 4H3.00003V6.5H5.00003V4H6.50003L4.00003 1ZM10.75 1C9.50003 1 9.50003 1 9.50003 2.24828V7.25C9.50003 8.5 9.50003 8.5 10.75 8.5H13.25C14.5 8.5 14.5 8.5 14.5 7.25V2.25C14.5 1 14.5 1 13.25 1H10.75ZM5.50303 7.40325C5.33803 7.407 5.18391 7.47878 4.97366 7.70312L4.76859 7.92091L4.55569 7.71091C4.32484 7.48341 4.14269 7.42059 3.95803 7.42872C3.77341 7.43684 3.55631 7.53387 3.3135 7.73041L3.11916 7.88763L2.93459 7.71966C2.65647 7.46803 2.41944 7.3935 2.19241 7.40522C2.02716 7.41378 1.85569 7.47603 1.68459 7.58491L2.96488 9.88762C3.44781 10.183 4.43466 10.2942 5.11331 9.95216L6.35063 7.66009C6.11594 7.56441 5.905 7.46634 5.72269 7.42872C5.65669 7.41506 5.59541 7.40503 5.53613 7.40325C5.52509 7.40297 5.51407 7.40297 5.50303 7.40325ZM11 9.5V12H9.50003L12 15L14.5 12H13V9.5H11ZM2.69144 10.4092V10.4093C2.12784 10.8074 1.67531 11.4942 1.50003 12.5C1.33019 13.4749 1.59775 14.1332 2.07131 14.582C2.54488 15.0307 3.25575 15.2613 3.97756 15.2519C4.69944 15.2425 5.41931 14.9922 5.90334 14.5352C6.38741 14.0781 6.66119 13.4281 6.50594 12.498C6.34541 11.5369 5.93094 10.8684 5.40625 10.4639C4.51616 10.9344 3.40331 10.8344 2.69144 10.4092Z" fill="#3090F7"/>
</svg>
