<svg width="17" height="16" viewBox="0 0 17 16" fill="none" xmlns="http://www.w3.org/2000/svg">
<path d="M8.75724 1.49999C5.10162 1.45062 2.11724 4.43499 2.16662 8.09062C2.21537 11.5966 5.07006 14.4512 8.57599 14.5C12.2322 14.55 15.216 11.5656 15.166 7.90999C15.1179 4.40343 12.2632 1.54874 8.75724 1.49999ZM8.23256 7.51468L9.84349 5.67093C9.93077 5.57106 10.0541 5.50995 10.1865 5.50104C10.3188 5.49213 10.4492 5.53616 10.5491 5.62343C10.649 5.7107 10.7101 5.83408 10.719 5.96641C10.7279 6.09874 10.6839 6.22919 10.5966 6.32906L8.98568 8.17281C8.94247 8.22226 8.88994 8.26271 8.83109 8.29186C8.77224 8.32101 8.70823 8.33828 8.64271 8.3427C8.57718 8.34711 8.51143 8.33857 8.44921 8.31757C8.38699 8.29657 8.32951 8.26352 8.28006 8.22031C8.23061 8.17709 8.19015 8.12456 8.161 8.06572C8.13185 8.00687 8.11458 7.94285 8.11017 7.87733C8.10576 7.81181 8.1143 7.74606 8.13529 7.68383C8.15629 7.62161 8.18934 7.56413 8.23256 7.51468ZM7.01818 10.3537C6.92442 10.4474 6.7973 10.5001 6.66474 10.5001C6.53219 10.5001 6.40507 10.4474 6.31131 10.3537L4.81287 8.85374C4.76646 8.80729 4.72965 8.75215 4.70454 8.69147C4.67944 8.63078 4.66653 8.56575 4.66656 8.50009C4.66659 8.43442 4.67955 8.3694 4.70471 8.30874C4.72987 8.24808 4.76673 8.19297 4.81318 8.14656C4.85964 8.10014 4.91478 8.06333 4.97546 8.03823C5.03614 8.01313 5.10117 8.00022 5.16684 8.00025C5.23251 8.00028 5.29753 8.01324 5.35819 8.0384C5.41885 8.06356 5.47396 8.10041 5.52037 8.14687L7.02037 9.64687C7.11378 9.74092 7.16602 9.86821 7.16561 10.0008C7.1652 10.1333 7.11217 10.2603 7.01818 10.3537ZM12.5432 6.32906L9.04693 10.3291C9.00189 10.3807 8.94672 10.4225 8.88484 10.4519C8.82297 10.4813 8.75571 10.4977 8.68724 10.5H8.67037C8.60467 10.5 8.53961 10.4871 8.47891 10.4619C8.41821 10.4368 8.36306 10.3999 8.31662 10.3534L6.81849 8.85343C6.72476 8.75961 6.67213 8.6324 6.67219 8.49977C6.67225 8.36715 6.72499 8.23998 6.81881 8.14624C6.91263 8.05251 7.03984 7.99988 7.17247 7.99994C7.30509 8 7.43226 8.05274 7.52599 8.14656L8.45724 9.07874C8.48145 9.10296 8.51038 9.12194 8.54223 9.13452C8.57407 9.1471 8.60817 9.153 8.64239 9.15185C8.67661 9.15071 8.71023 9.14255 8.74117 9.12788C8.77211 9.1132 8.79971 9.09233 8.82225 9.06656L11.791 5.67093C11.8783 5.57106 12.0016 5.50995 12.134 5.50104C12.2663 5.49213 12.3967 5.53616 12.4966 5.62343C12.5965 5.7107 12.6576 5.83408 12.6665 5.96641C12.6754 6.09874 12.6314 6.22919 12.5441 6.32906H12.5432Z" fill="#5FC057"/>
</svg>
