<svg width="16" height="16" viewBox="0 0 16 16" fill="none" xmlns="http://www.w3.org/2000/svg">
<path d="M4 14.6667C3.44444 14.6667 2.97222 14.4722 2.58333 14.0833C2.19444 13.6944 2 13.2222 2 12.6667V11.3333C2 11.1444 2.064 10.9862 2.192 10.8587C2.32 10.7311 2.47822 10.6671 2.66667 10.6667H4V1.73333C4 1.65555 4.03333 1.60266 4.1 1.57466C4.16667 1.54666 4.22778 1.56066 4.28333 1.61666L4.76667 2.09999C4.83333 2.16666 4.91111 2.19999 5 2.19999C5.08889 2.19999 5.16667 2.16666 5.23333 2.09999L5.76667 1.56666C5.83333 1.49999 5.91111 1.46666 6 1.46666C6.08889 1.46666 6.16667 1.49999 6.23333 1.56666L6.76667 2.09999C6.83333 2.16666 6.91111 2.19999 7 2.19999C7.08889 2.19999 7.16667 2.16666 7.23333 2.09999L7.76667 1.56666C7.83333 1.49999 7.91111 1.46666 8 1.46666C8.08889 1.46666 8.16667 1.49999 8.23333 1.56666L8.76667 2.09999C8.83333 2.16666 8.91111 2.19999 9 2.19999C9.08889 2.19999 9.16667 2.16666 9.23333 2.09999L9.76667 1.56666C9.83333 1.49999 9.91111 1.46666 10 1.46666C10.0889 1.46666 10.1667 1.49999 10.2333 1.56666L10.7667 2.09999C10.8333 2.16666 10.9111 2.19999 11 2.19999C11.0889 2.19999 11.1667 2.16666 11.2333 2.09999L11.7667 1.56666C11.8333 1.49999 11.9111 1.46666 12 1.46666C12.0889 1.46666 12.1667 1.49999 12.2333 1.56666L12.7667 2.09999C12.8333 2.16666 12.9111 2.19999 13 2.19999C13.0889 2.19999 13.1667 2.16666 13.2333 2.09999L13.7167 1.61666C13.7722 1.5611 13.8333 1.5471 13.9 1.57466C13.9667 1.60222 14 1.6551 14 1.73333V12.6667C14 13.2222 13.8056 13.6944 13.4167 14.0833C13.0278 14.4722 12.5556 14.6667 12 14.6667H4ZM12 13.3333C12.1889 13.3333 12.3473 13.2693 12.4753 13.1413C12.6033 13.0133 12.6671 12.8551 12.6667 12.6667V3.33333H5.33333V10.6667H10.6667C10.8556 10.6667 11.014 10.7307 11.142 10.8587C11.27 10.9867 11.3338 11.1449 11.3333 11.3333V12.6667C11.3333 12.8555 11.3973 13.014 11.5253 13.142C11.6533 13.27 11.8116 13.3338 12 13.3333ZM6.66667 4.66666H9.33333C9.52222 4.66666 9.68067 4.73066 9.80867 4.85866C9.93667 4.98666 10.0004 5.14488 10 5.33333C9.99956 5.52177 9.93556 5.68022 9.808 5.80866C9.68044 5.9371 9.52222 6.00088 9.33333 5.99999H6.66667C6.47778 5.99999 6.31956 5.93599 6.192 5.80799C6.06444 5.67999 6.00044 5.52177 6 5.33333C5.99956 5.14488 6.06356 4.98666 6.192 4.85866C6.32044 4.73066 6.47867 4.66666 6.66667 4.66666ZM6.66667 6.66666H9.33333C9.52222 6.66666 9.68067 6.73066 9.80867 6.85866C9.93667 6.98666 10.0004 7.14488 10 7.33333C9.99956 7.52177 9.93556 7.68022 9.808 7.80866C9.68044 7.9371 9.52222 8.00088 9.33333 7.99999H6.66667C6.47778 7.99999 6.31956 7.93599 6.192 7.80799C6.06444 7.67999 6.00044 7.52177 6 7.33333C5.99956 7.14488 6.06356 6.98666 6.192 6.85866C6.32044 6.73066 6.47867 6.66666 6.66667 6.66666ZM11.3333 5.99999C11.1444 5.99999 10.9862 5.93599 10.8587 5.80799C10.7311 5.67999 10.6671 5.52177 10.6667 5.33333C10.6662 5.14488 10.7302 4.98666 10.8587 4.85866C10.9871 4.73066 11.1453 4.66666 11.3333 4.66666C11.5213 4.66666 11.6798 4.73066 11.8087 4.85866C11.9376 4.98666 12.0013 5.14488 12 5.33333C11.9987 5.52177 11.9347 5.68022 11.808 5.80866C11.6813 5.9371 11.5231 6.00088 11.3333 5.99999ZM11.3333 7.99999C11.1444 7.99999 10.9862 7.93599 10.8587 7.80799C10.7311 7.67999 10.6671 7.52177 10.6667 7.33333C10.6662 7.14488 10.7302 6.98666 10.8587 6.85866C10.9871 6.73066 11.1453 6.66666 11.3333 6.66666C11.5213 6.66666 11.6798 6.73066 11.8087 6.85866C11.9376 6.98666 12.0013 7.14488 12 7.33333C11.9987 7.52177 11.9347 7.68022 11.808 7.80866C11.6813 7.9371 11.5231 8.00088 11.3333 7.99999Z" fill="#23DB19"/>
</svg>
