<svg width="14" height="15" viewBox="0 0 14 15" fill="none" xmlns="http://www.w3.org/2000/svg">
<path d="M12.2502 4.58333V11.5833C12.2502 11.9042 12.1361 12.1789 11.9078 12.4076C11.6795 12.6362 11.4048 12.7504 11.0836 12.75H2.91691C2.59608 12.75 2.32152 12.6359 2.09324 12.4076C1.86497 12.1793 1.75063 11.9046 1.75024 11.5833V3.41667C1.75024 3.09583 1.86458 2.82128 2.09324 2.593C2.32191 2.36472 2.59647 2.25039 2.91691 2.25H9.91691L12.2502 4.58333ZM11.0836 5.07917L9.42108 3.41667H2.91691V11.5833H11.0836V5.07917ZM7.00024 11C7.48635 11 7.89955 10.8299 8.23983 10.4896C8.5801 10.1493 8.75024 9.73611 8.75024 9.25C8.75024 8.76389 8.5801 8.35069 8.23983 8.01042C7.89955 7.67014 7.48635 7.5 7.00024 7.5C6.51413 7.5 6.10094 7.67014 5.76066 8.01042C5.42038 8.35069 5.25024 8.76389 5.25024 9.25C5.25024 9.73611 5.42038 10.1493 5.76066 10.4896C6.10094 10.8299 6.51413 11 7.00024 11ZM3.50024 6.33333H8.75024V4H3.50024V6.33333ZM2.91691 5.07917V11.5833V3.41667V5.07917Z" fill="#5381C7"/>
</svg>
