<?xml version="1.0" encoding="utf-8"?>
<!-- Generator: Adobe Illustrator 28.3.0, SVG Export Plug-In . SVG Version: 6.00 Build 0)  -->
<svg version="1.1" id="Слой_1" xmlns="http://www.w3.org/2000/svg" xmlns:xlink="http://www.w3.org/1999/xlink" x="0px" y="0px"
	 viewBox="0 0 590.92 211.52" style="enable-background:new 0 0 590.92 211.52;" xml:space="preserve">
<style type="text/css">
	.st0{fill:#FFFFFF;}
	.st1{fill-rule:evenodd;clip-rule:evenodd;fill:#FFFFFF;}
</style>
<g id="логотип">
	<g>
		<g>
			<path class="st0" d="M203.4,89.52l-0.12-52.78l-25.88,43.49h-9.19l-25.76-42.37v51.66h-19.11V1.54h16.85l32.93,54.68l32.42-54.68
				h16.73l0.25,87.98H203.4z"/>
			<path class="st0" d="M314.45,73.18v16.34h-68.13V1.54h66.49v16.33h-46.26v19.11h40.84v15.83h-40.84v20.36H314.45z"/>
			<path class="st0" d="M366.9,91.18c-6.81,0-13.15-1.09-19.03-3.27c-5.8-2.27-10.84-5.46-15.12-9.57
				c-4.28-4.11-7.64-8.94-10.08-14.48c-2.35-5.54-3.53-11.63-3.53-18.26s1.18-12.72,3.53-18.26c2.44-5.54,5.8-10.37,10.08-14.48
				c4.37-4.11,9.45-7.26,15.25-9.45c5.8-2.27,12.14-3.4,19.03-3.4c7.65,0,14.53,1.34,20.67,4.03c6.22,2.6,11.42,6.47,15.62,11.59
				l-13.1,12.09c-3.02-3.44-6.38-6-10.08-7.68c-3.69-1.76-7.73-2.64-12.1-2.64c-4.12,0-7.9,0.67-11.34,2.02
				c-3.44,1.34-6.43,3.27-8.95,5.79c-2.52,2.52-4.49,5.5-5.92,8.94c-1.34,3.44-2.02,7.26-2.02,11.46s0.67,8.02,2.02,11.46
				c1.43,3.44,3.4,6.42,5.92,8.94c2.52,2.52,5.5,4.45,8.95,5.79c3.44,1.34,7.22,2.02,11.34,2.02c4.37,0,8.4-0.84,12.1-2.52
				c3.7-1.76,7.06-4.41,10.08-7.93l13.1,12.09c-4.2,5.12-9.41,9.03-15.62,11.71C381.56,89.84,374.63,91.18,366.9,91.18z"/>
			<path class="st0" d="M438.97,18.13h-28.14V1.54h76.67v16.59h-28.14v71.39h-20.38V18.13z"/>
			<path class="st0" d="M542.73,73.68c5.19,0,9.89-1.19,14.08-3.58c4.19-2.38,7.49-5.72,9.87-10s3.58-9.14,3.58-14.59
				s-1.19-10.31-3.58-14.59s-5.68-7.61-9.87-10c-4.19-2.38-8.89-3.58-14.08-3.58c-5.19,0-9.89,1.19-14.08,3.58
				c-4.19,2.38-7.49,5.72-9.87,10c-2.38,4.28-3.58,9.14-3.58,14.59s1.19,10.31,3.58,14.59c2.38,4.28,5.68,7.61,9.87,10
				C532.84,72.49,537.54,73.68,542.73,73.68z M542.73,91.03c-9.14,0-17.36-1.96-24.71-5.91c-7.33-3.95-13.06-9.36-17.22-16.27
				c-4.16-6.91-6.23-14.68-6.23-23.32c0-8.63,2.07-16.4,6.23-23.32c4.16-6.91,9.89-12.35,17.22-16.27
				c7.33-3.95,15.57-5.91,24.71-5.91c9.14,0,17.34,1.96,24.64,5.91c7.29,3.95,13.03,9.36,17.22,16.27
				c4.19,6.91,6.28,14.68,6.28,23.32c0,8.63-2.09,16.4-6.28,23.32c-4.19,6.91-9.93,12.35-17.22,16.27
				C560.07,89.06,551.86,91.03,542.73,91.03z"/>
			<path class="st1" d="M162.38,115.79h20.25h39.05v89.41h-98.37v-89.41H162.38z M182.65,144.84H162.4v-17.01h-27v65.32h74.26
				v-65.32h-27V144.84z"/>
			<path class="st0" d="M590.92,126.33H284.08v12.92h306.85V126.33z"/>
			<path class="st1" d="M264.21,108.05c13.66,0,24.74,11.08,24.74,24.74c0,13.66-11.08,24.74-24.74,24.74s-24.74-11.08-24.74-24.74
				C239.47,119.12,250.53,108.05,264.21,108.05z M264.21,120.61c6.73,0,12.19,5.45,12.19,12.19c0,6.73-5.45,12.19-12.19,12.19
				c-6.73,0-12.19-5.45-12.19-12.19C252.02,126.06,257.47,120.61,264.21,120.61z"/>
			<path class="st0" d="M566.68,126.33h-15.52v29.06h15.52V126.33z"/>
			<path class="st0" d="M530.07,126.33h-15.52v29.06h15.52V126.33z"/>
			<path class="st1" d="M40.82,143.09h16.75v-15.26c0-0.96,0.79-1.75,1.75-1.75h27c0.96,0,1.75,0.79,1.75,1.75v65.32
				c0,0.96-0.79,1.75-1.75,1.75H12.06c-0.96,0-1.75-0.79-1.75-1.75v-65.32c0-0.96,0.79-1.75,1.75-1.75h27
				c0.96,0,1.75,0.79,1.75,1.75V143.09z M39.07,117.54H1.77v85.91h94.85v-85.91h-37.3H39.07z M59.32,144.84H39.07v-17.01h-27v65.32
				h74.26v-65.32h-27V144.84z M0.02,115.79h39.05h20.25h39.05v89.41H0v-89.41H0.02z"/>
			<path class="st1" d="M40.82,27.41h16.75V12.15c0-0.96,0.79-1.75,1.75-1.75h27c0.96,0,1.75,0.79,1.75,1.75v65.32
				c0,0.96-0.79,1.75-1.75,1.75H12.06c-0.96,0-1.75-0.79-1.75-1.75V12.15c0-0.96,0.79-1.75,1.75-1.75h27c0.96,0,1.75,0.79,1.75,1.75
				V27.41z M39.07,1.86H1.77v85.91h94.85V1.86h-37.3H39.07z M59.32,29.16H39.07V12.15h-27v65.32h74.26V12.15h-27V29.16z M0.02,0.11
				h39.05h20.25h39.05v89.41H0V0.11H0.02z"/>
			<path class="st1" d="M59.32,144.84H39.07v-17.01h-27v65.32h74.26v-65.32h-27V144.84z M0.02,115.79h39.05h20.25h39.05v89.41H0
				v-89.41H0.02z"/>
			<path class="st1" d="M59.32,29.16H39.07V12.15h-27v65.32h74.26V12.15h-27V29.16z M0.02,0.11h39.05h20.25h39.05v89.41H0V0.11H0.02
				z"/>
			<path class="st0" d="M269.9,204.94l-9.9-15.31l5.95-3.59l12.31,18.9H269.9z M249.22,204.94v-31.8h7.31v31.8H249.22z
				 M254.4,192.12v-6.13h11.09v6.13H254.4z M266.62,189.85l-6.77-0.82l10.31-15.9h7.77L266.62,189.85z"/>
			<path class="st0" d="M291.91,205.43c-0.55,0-1.12-0.05-1.73-0.14c-0.58-0.09-1.21-0.21-1.91-0.36l0.45-6.22
				c0.42,0.12,0.86,0.18,1.32,0.18c1.24,0,2.21-0.5,2.91-1.5c0.7-1.03,1.2-2.5,1.5-4.41c0.3-1.91,0.5-4.23,0.59-6.95l0.45-12.9
				h24.44v31.8h-7.27v-27.49l1.68,1.68h-14.04l1.5-1.77l-0.27,8.41c-0.09,3.12-0.3,5.89-0.64,8.31c-0.33,2.42-0.85,4.48-1.54,6.18
				c-0.7,1.7-1.65,2.98-2.86,3.86C295.28,205,293.75,205.43,291.91,205.43z"/>
			<path class="st0" d="M333.38,204.94l14.17-31.8h7.27l14.22,31.8h-7.72l-11.63-28.08h2.91l-11.68,28.08H333.38z M340.47,198.12
				l1.95-5.59h16.36l2,5.59H340.47z"/>
			<path class="st0" d="M403.61,201.66v-22.53h-10.9l-0.14,4.63c-0.09,1.97-0.23,3.83-0.41,5.59c-0.15,1.76-0.39,3.36-0.73,4.82
				c-0.33,1.42-0.77,2.64-1.32,3.63c-0.52,1-1.17,1.71-1.95,2.14l-7.86-1c1.09,0.03,1.98-0.35,2.68-1.14
				c0.73-0.79,1.3-1.89,1.73-3.32c0.42-1.45,0.73-3.15,0.91-5.09c0.21-1.94,0.36-4.04,0.45-6.32l0.36-9.95h24.44v28.53H403.61z
				 M379.25,211.52l0.05-12.58h36.03v12.58h-6.81v-6.59h-22.44v6.59H379.25z"/>
			<path class="st0" d="M444.59,205.48c-2.51,0-4.85-0.41-7-1.23c-2.12-0.82-3.97-1.97-5.54-3.45c-1.54-1.48-2.76-3.23-3.63-5.22
				c-0.85-2-1.27-4.18-1.27-6.54s0.42-4.54,1.27-6.54c0.88-2,2.1-3.74,3.68-5.22c1.58-1.48,3.42-2.64,5.54-3.45
				c2.12-0.82,4.42-1.23,6.91-1.23c2.51,0,4.82,0.41,6.91,1.23c2.12,0.82,3.95,1.97,5.5,3.45c1.58,1.48,2.8,3.23,3.68,5.22
				c0.88,1.97,1.32,4.15,1.32,6.54c0,2.36-0.44,4.56-1.32,6.59c-0.88,2-2.1,3.74-3.68,5.22c-1.54,1.45-3.38,2.59-5.5,3.41
				C449.36,205.07,447.07,205.48,444.59,205.48z M444.54,199.21c1.42,0,2.73-0.24,3.91-0.73c1.21-0.49,2.27-1.18,3.18-2.09
				c0.91-0.91,1.6-1.98,2.09-3.23c0.51-1.24,0.77-2.62,0.77-4.13c0-1.51-0.26-2.89-0.77-4.13c-0.49-1.24-1.18-2.32-2.09-3.23
				c-0.88-0.91-1.92-1.6-3.13-2.09c-1.21-0.49-2.53-0.73-3.95-0.73c-1.42,0-2.74,0.24-3.95,0.73c-1.18,0.49-2.23,1.18-3.13,2.09
				c-0.91,0.91-1.62,1.98-2.14,3.23c-0.49,1.24-0.73,2.62-0.73,4.13c0,1.48,0.24,2.86,0.73,4.13c0.51,1.24,1.21,2.32,2.09,3.23
				c0.91,0.91,1.97,1.6,3.18,2.09C441.8,198.97,443.12,199.21,444.54,199.21z"/>
			<path class="st0" d="M476.7,204.94v-31.8h14.81c3.69,0,6.57,0.71,8.63,2.14c2.06,1.42,3.09,3.45,3.09,6.09
				c0,2.6-0.97,4.63-2.91,6.09c-1.94,1.42-4.51,2.14-7.72,2.14l0.86-1.91c3.57,0,6.35,0.71,8.31,2.14c1.97,1.42,2.95,3.48,2.95,6.18
				c0,2.79-1.06,4.98-3.18,6.59c-2.09,1.58-5.15,2.36-9.18,2.36H476.7z M484.01,199.48h8.09c1.7,0,2.98-0.33,3.86-1
				c0.88-0.67,1.32-1.7,1.32-3.09c0-1.33-0.44-2.32-1.32-2.95c-0.88-0.67-2.17-1-3.86-1h-8.09V199.48z M484.01,186.31h6.86
				c1.6,0,2.82-0.32,3.63-0.95c0.82-0.67,1.23-1.64,1.23-2.91s-0.41-2.23-1.23-2.86c-0.82-0.67-2.03-1-3.63-1h-6.86V186.31z"/>
			<path class="st0" d="M540.22,204.94l-9.9-15.31l5.95-3.59l12.31,18.9H540.22z M519.55,204.94v-31.8h7.31v31.8H519.55z
				 M524.73,192.12v-6.13h11.09v6.13H524.73z M536.95,189.85l-6.77-0.82l10.31-15.9h7.77L536.95,189.85z"/>
			<path class="st0" d="M561.11,204.94v-31.8h7.31v20.72l15.17-20.72h6.91v31.8h-7.27v-20.67l-15.17,20.67H561.11z"/>
		</g>
	</g>
</g>
</svg>
