<svg width="16" height="17" viewBox="0 0 16 17" fill="none" xmlns="http://www.w3.org/2000/svg">
<path d="M4.66699 5.16669H4.00033C3.6467 5.16669 3.30756 5.30716 3.05752 5.55721C2.80747 5.80726 2.66699 6.1464 2.66699 6.50002V12.5C2.66699 12.8536 2.80747 13.1928 3.05752 13.4428C3.30756 13.6929 3.6467 13.8334 4.00033 13.8334H10.0003C10.3539 13.8334 10.6931 13.6929 10.9431 13.4428C11.1932 13.1928 11.3337 12.8536 11.3337 12.5V11.8334" stroke="#7C7D81" stroke-width="1.33333" stroke-linecap="round" stroke-linejoin="round"/>
<path d="M10.6669 3.83334L12.6669 5.83334M13.5902 4.89001C13.8528 4.62745 14.0003 4.27133 14.0003 3.90001C14.0003 3.52869 13.8528 3.17257 13.5902 2.91001C13.3277 2.64745 12.9716 2.49994 12.6002 2.49994C12.2289 2.49994 11.8728 2.64745 11.6102 2.91001L6.00024 8.50001V10.5H8.00024L13.5902 4.89001Z" stroke="#7C7D81" stroke-width="1.33333" stroke-linecap="round" stroke-linejoin="round"/>
</svg>
